<svg xmlns="http://www.w3.org/2000/svg" width="150" height="150" viewBox="0 0 150 150">
  <g id="Group_1" data-name="Group 1" transform="translate(-936 -684)">
    <circle id="Ellipse_1" data-name="Ellipse 1" cx="75" cy="75" r="75" transform="translate(936 684)" fill="red"/>
    <path id="Path_4" data-name="Path 4" d="M177.443,95.41a11.883,11.883,0,0,0-8.388-8.388c-7.4-1.983-37.067-1.983-37.067-1.983s-29.668,0-37.067,1.983a11.883,11.883,0,0,0-8.388,8.388c-1.982,7.4-1.982,22.836-1.982,22.836s0,15.438,1.982,22.836a11.882,11.882,0,0,0,8.388,8.388c7.4,1.983,37.067,1.983,37.067,1.983s29.668,0,37.067-1.983a11.882,11.882,0,0,0,8.388-8.388c1.982-7.4,1.982-22.836,1.982-22.836S179.425,102.808,177.443,95.41ZM122.5,132.478V104.014l24.648,14.232Z" transform="translate(879.791 641.299)" fill="#fff"/>
  </g>
</svg>
