<?xml version="1.0" encoding="utf-8"?>
<!-- Generator: Adobe Illustrator 26.0.1, SVG Export Plug-In . SVG Version: 6.00 Build 0)  -->
<svg version="1.1" id="Layer_1" xmlns="http://www.w3.org/2000/svg" xmlns:xlink="http://www.w3.org/1999/xlink" x="0px" y="0px"
	 viewBox="0 0 188.3 187.2" style="enable-background:new 0 0 188.3 187.2;" xml:space="preserve">
<style type="text/css">
	.st0{fill:#E42618;}
	.st1{fill:#FFFFFF;}
</style>
<path class="st0" d="M1.5,93.9c0,51.3,41.6,92.8,92.8,92.8"/>
<path class="st0" d="M94.3,186.7c51.3,0,92.9-41.6,92.9-92.9S145.6,1,94.3,1S1.5,42.6,1.5,93.9"/>
<g>
	<path class="st1" d="M145.3,115c-0.4,8.2-2.3,15.5-8.3,21.5c-6,6-13.3,7.9-21.5,8.3c-8.5,0.5-33.9,0.5-42.3,0
		c-8.2-0.4-15.5-2.3-21.5-8.3c-6-6-7.9-13.3-8.3-21.5c-0.5-8.5-0.5-33.9,0-42.3c0.4-8.2,2.3-15.5,8.3-21.5c6-6,13.3-7.9,21.5-8.3
		c8.5-0.5,33.9-0.5,42.3,0c8.2,0.4,15.5,2.3,21.5,8.3c6,6,7.9,13.3,8.3,21.5C145.8,81.2,145.8,106.6,145.3,115z M136.4,93.9
		c0-7.5,0.6-23.5-2.1-30.2c-1.8-4.5-5.3-8-9.8-9.8c-6.7-2.7-22.8-2.1-30.2-2.1c-7.5,0-23.5-0.6-30.2,2.1c-4.5,1.8-8,5.3-9.8,9.8
		c-2.7,6.7-2.1,22.8-2.1,30.2s-0.6,23.5,2.1,30.2c1.8,4.5,5.3,8,9.8,9.8c6.7,2.7,22.8,2.1,30.2,2.1c7.5,0,23.5,0.6,30.2-2.1
		c4.5-1.8,8-5.3,9.8-9.8C137,117.4,136.4,101.3,136.4,93.9z M120.7,93.9c0,14.6-11.7,26.3-26.3,26.3S68,108.4,68,93.9
		s11.7-26.3,26.3-26.3S120.7,79.3,120.7,93.9z M111.4,93.9c0-9.4-7.7-17.1-17.1-17.1c-9.4,0-17.1,7.7-17.1,17.1
		c0,9.4,7.7,17.1,17.1,17.1S111.4,103.3,111.4,93.9z M121.7,60.3c-3.4,0-6.1,2.7-6.1,6.1c0,3.4,2.7,6.1,6.1,6.1
		c3.4,0,6.1-2.7,6.1-6.1C127.9,63.1,125.1,60.3,121.7,60.3z"/>
</g>
</svg>
