<?xml version="1.0" encoding="UTF-8"?> <!-- Generator: Adobe Illustrator 24.0.0, SVG Export Plug-In . SVG Version: 6.00 Build 0) --> <svg xmlns="http://www.w3.org/2000/svg" xmlns:xlink="http://www.w3.org/1999/xlink" id="Layer_1" x="0px" y="0px" viewBox="0 0 188.67 187.24" style="enable-background:new 0 0 188.67 187.24;" xml:space="preserve"> <style type="text/css"> .st0{fill:#E42618;} .st1{fill:#FFFFFF;} </style> <path class="st0" d="M1.48,93.92c0,51.27,41.56,92.83,92.83,92.83"></path> <path class="st0" d="M94.31,186.74c51.31,0,92.87-41.56,92.87-92.87S145.62,1,94.31,1S1.48,42.6,1.48,93.91"></path> <g> <path class="st1" d="M75.66,51.89c0.04,2.99-1.01,5.54-3.11,7.52c-2.13,2.02-4.9,3.03-8.38,3.03h-0.11c-3.37,0-6.1-1.01-8.16-3.03 s-3.11-4.53-3.11-7.52c0-3.03,1.05-5.58,3.18-7.56s4.9-2.99,8.31-2.99c3.41,0,6.17,1.01,8.23,2.99 C74.58,46.31,75.62,48.82,75.66,51.89z M74.35,70.79v61.22H53.96V70.79H74.35z M147.7,96.91v35.1h-20.32V99.27 c0-4.34-0.82-7.71-2.51-10.18c-1.68-2.43-4.27-3.67-7.82-3.67c-2.58,0-4.75,0.71-6.51,2.13s-3.07,3.18-3.93,5.28 c-0.45,1.23-0.67,2.92-0.67,5.01v34.17H85.62c0.07-16.43,0.11-29.75,0.11-39.97s-0.04-16.32-0.07-18.3l-0.07-2.96h20.32v8.91h-0.11 c0.82-1.31,1.68-2.47,2.54-3.44s2.02-2.06,3.48-3.22c1.46-1.16,3.26-2.06,5.39-2.69c2.13-0.64,4.49-0.97,7.07-0.97 c7.04,0,12.72,2.32,16.99,7C145.56,81.04,147.7,87.89,147.7,96.91z"></path> </g> </svg> 